<svg xmlns="http://www.w3.org/2000/svg" viewBox="0 0 24 24" fill="currentColor"><path d="M5.70821345,5.73660301 C7.38668916,4.04663089 9.91888939,3.53618808 12.1210095,4.4439068 C14.3231297,5.35162552 15.7601123,7.49817411 15.7601674,9.88004029 C15.7629418,11.0873594 15.3888889,12.2654513 14.6901674,13.2500403 L14.6901674,13.2500403 L19.0401674,17.5900403 C19.3007187,17.8187734 19.3317557,18.2133861 19.1101674,18.4800403 L19.1101674,18.4800403 L18.2401674,19.3500403 C17.9874191,19.5977832 17.5829157,19.5977832 17.3301674,19.3500403 L17.3301674,19.3500403 L12.9201674,14.9400403 C12.014476,15.4837576 10.9765056,15.7674695 9.92016742,15.7600403 C7.53835636,15.7762435 5.38204913,14.3539464 4.4593202,12.1580735 C3.53659126,9.96220058 4.02973773,7.42657513 5.70821345,5.73660301 Z M9.88023584,5.50014279 C7.46515257,5.50563046 5.51016742,7.4649508 5.51016742,9.88004029 C5.51016742,11.0469051 5.97571888,12.1655459 6.8036281,12.987823 C7.63153732,13.8101002 8.75333,14.2680325 9.92016742,14.2600403 C12.3352003,14.2434986 14.2811309,12.2752416 14.2701684,9.86017719 C14.2591129,7.4451128 12.2953191,5.49467812 9.88023584,5.50014279 Z"/></svg>