<?xml version="1.0" ?><svg style="enable-background:new 0 0 50 50;" version="1.1" viewBox="0 0 50 50" xml:space="preserve" xmlns="http://www.w3.org/2000/svg" xmlns:xlink="http://www.w3.org/1999/xlink"><g id="Layer_1"><polygon points="39.707,33.707 48.414,25 39.707,16.293 38.293,17.707 44.586,24 26,24 26,5.414 32.293,11.707 33.707,10.293    25,1.586 16.293,10.293 17.707,11.707 24,5.414 24,24 5.414,24 11.707,17.707 10.293,16.293 1.586,25 10.293,33.707 11.707,32.293    5.414,26 24,26 24,44.586 17.707,38.293 16.293,39.707 25,48.414 33.707,39.707 32.293,38.293 26,44.586 26,26 44.586,26    38.293,32.293  "/></g><g/></svg>